<?xml version="1.0" standalone="no"?>
<!DOCTYPE svg PUBLIC "-//W3C//DTD SVG 20010904//EN"
 "http://www.w3.org/TR/2001/REC-SVG-20010904/DTD/svg10.dtd">
<svg version="1.0" xmlns="http://www.w3.org/2000/svg"
 width="512.000000pt" height="512.000000pt" viewBox="0 0 512.000000 512.000000"
 preserveAspectRatio="xMidYMid meet">

<g transform="translate(0.000000,512.000000) scale(0.100000,-0.100000)"
fill="color" stroke="none">
<path d="M259 5098 c-20 -11 -46 -38 -58 -58 l-21 -38 0 -2442 0 -2442 21 -38
c12 -21 38 -47 59 -59 l38 -21 2079 2 2078 3 67 26 c193 75 328 219 394 419
17 50 19 109 21 715 3 616 2 662 -14 694 -10 19 -31 44 -46 55 -27 20 -44 21
-435 26 l-407 5 -5 1542 c-5 1530 -5 1542 -25 1569 -11 15 -36 35 -55 45 -33
18 -102 19 -1845 19 l-1810 0 -36 -22z m3473 -2430 l3 -2153 24 -70 c13 -38
32 -87 42 -108 l19 -37 -1670 0 -1670 0 0 2260 0 2260 1625 0 1625 0 2 -2152z
m906 -1575 l-3 -548 -26 -55 c-34 -74 -76 -120 -139 -154 -131 -71 -296 -27
-379 102 -59 93 -61 113 -61 684 l0 518 305 0 306 0 -3 -547z"/>
<path d="M1370 4436 c-333 -71 -560 -349 -560 -686 0 -149 39 -277 121 -397
l29 -42 0 -503 c0 -562 -2 -548 70 -596 29 -20 45 -23 90 -20 52 4 63 10 218
123 90 66 165 120 167 120 2 0 75 -52 162 -116 87 -64 174 -121 193 -126 68
-18 140 14 172 78 16 31 18 78 18 537 l0 503 29 42 c78 115 111 218 118 367 6
134 -8 212 -61 323 -87 188 -254 329 -451 382 -84 22 -235 28 -315 11z m219
-297 c117 -27 227 -116 279 -226 24 -52 27 -70 27 -163 0 -93 -3 -111 -27
-163 -56 -119 -173 -208 -304 -230 -168 -29 -346 69 -422 230 -24 52 -27 70
-27 163 0 93 3 112 27 162 80 172 270 268 447 227z m-204 -1076 c80 -17 207
-12 295 12 30 8 58 15 63 15 4 0 7 -103 7 -230 l0 -230 -91 67 c-83 60 -97 67
-148 71 -56 4 -56 4 -153 -67 l-98 -70 0 230 0 231 28 -7 c15 -4 59 -14 97
-22z"/>
<path d="M925 1671 c-80 -20 -120 -75 -113 -157 4 -47 10 -61 42 -92 l36 -37
605 0 605 0 36 37 c68 67 55 181 -25 230 l-36 23 -560 2 c-308 1 -573 -2 -590
-6z"/>
<path d="M915 1043 c-122 -31 -143 -206 -33 -273 33 -20 49 -20 1168 -18
l1135 3 32 23 c40 28 68 98 59 146 -8 44 -50 94 -93 112 -27 12 -225 14 -1140
13 -609 -1 -1117 -4 -1128 -6z"/>
</g>
</svg>
