<?xml version="1.0" standalone="no"?>
<!DOCTYPE svg PUBLIC "-//W3C//DTD SVG 20010904//EN"
 "http://www.w3.org/TR/2001/REC-SVG-20010904/DTD/svg10.dtd">
<svg version="1.0" xmlns="http://www.w3.org/2000/svg"
 width="512.000000pt" height="512.000000pt" viewBox="0 0 512.000000 512.000000"
 preserveAspectRatio="xMidYMid meet">

<g transform="translate(0.000000,512.000000) scale(0.100000,-0.100000)"
fill="color" stroke="none">
<path d="M2496 5103 c-17 -8 -200 -146 -408 -304 l-378 -289 -340 0 c-481 0
-452 22 -460 -354 l-5 -249 -434 -322 c-317 -235 -439 -331 -452 -356 -17 -32
-18 -107 -19 -1572 0 -1522 0 -1538 20 -1577 13 -26 34 -47 60 -60 39 -20 53
-20 2480 -20 2427 0 2441 0 2480 20 26 13 47 34 60 60 20 39 20 56 20 1574 0
1431 -1 1538 -17 1571 -14 29 -105 102 -455 361 l-438 325 0 240 c0 221 -2
243 -20 279 -13 26 -34 47 -60 60 -37 19 -58 20 -379 20 l-340 0 -378 288
c-208 159 -392 296 -410 305 -40 21 -89 21 -127 0z m240 -455 l174 -133 -175
-3 c-96 -1 -254 -1 -350 0 l-175 3 173 132 c94 72 173 132 175 132 2 1 82 -59
178 -131z m1174 -1265 l0 -828 -670 -500 c-369 -275 -675 -500 -680 -500 -5 0
-311 225 -679 500 l-670 500 -1 828 0 827 1350 0 1350 0 0 -827z m-3000 -228
l0 -375 -247 186 c-137 102 -248 189 -248 194 0 9 474 368 488 369 4 1 7 -168
7 -374z m3552 195 c134 -99 244 -184 246 -189 1 -5 -110 -92 -248 -194 l-250
-186 0 374 c0 206 2 375 5 375 2 0 114 -81 247 -180z m-2925 -1413 c512 -382
945 -703 962 -711 39 -21 84 -20 124 0 25 13 2003 1484 2160 1606 l37 30 0
-1281 0 -1281 -2260 0 -2260 0 0 1280 0 1280 153 -113 c83 -63 571 -427 1084
-810z"/>
<path d="M1888 3589 c-43 -22 -78 -81 -78 -129 0 -50 35 -107 80 -130 38 -19
58 -20 670 -20 612 0 632 1 670 20 45 23 80 80 80 130 0 50 -35 107 -80 130
-38 19 -57 20 -672 20 -610 -1 -634 -2 -670 -21z"/>
<path d="M1888 2989 c-43 -22 -78 -81 -78 -129 0 -50 35 -107 80 -130 38 -19
58 -20 670 -20 612 0 632 1 670 20 45 23 80 80 80 130 0 50 -35 107 -80 130
-38 19 -57 20 -672 20 -610 -1 -634 -2 -670 -21z"/>
<path d="M1595 1418 c-11 -6 -184 -134 -385 -284 -385 -288 -400 -302 -400
-377 0 -103 121 -178 212 -131 55 28 747 553 764 579 42 64 21 158 -45 202
-37 25 -111 31 -146 11z"/>
<path d="M3379 1407 c-66 -44 -87 -138 -45 -202 17 -26 709 -551 764 -579 92
-47 212 28 212 133 0 73 -17 89 -400 375 -201 150 -375 279 -387 285 -37 19
-107 13 -144 -12z"/>
</g>
</svg>
