<?xml version="1.0" standalone="no"?>
<!DOCTYPE svg PUBLIC "-//W3C//DTD SVG 20010904//EN"
 "http://www.w3.org/TR/2001/REC-SVG-20010904/DTD/svg10.dtd">
<svg version="1.0" xmlns="http://www.w3.org/2000/svg"
 width="512.000000pt" height="512.000000pt" viewBox="0 0 512.000000 512.000000"
 preserveAspectRatio="xMidYMid meet">

<g transform="translate(0.000000,512.000000) scale(0.100000,-0.100000)"
fill="color" stroke="none">
<path d="M95 5106 c-45 -20 -83 -70 -90 -119 -3 -23 -5 -1130 -3 -2459 l3
-2417 21 -28 c11 -15 36 -38 54 -50 l33 -23 1791 0 c1714 0 1793 1 1826 18 22
12 44 35 58 62 l22 44 0 2430 c0 2409 0 2430 -20 2471 -13 26 -34 49 -59 63
l-39 22 -1783 0 c-1461 -1 -1790 -3 -1814 -14z m3415 -2541 l0 -2255 -1605 0
-1605 0 0 2255 0 2255 1605 0 1605 0 0 -2255z"/>
<path d="M802 4303 c-38 -7 -99 -74 -107 -116 -10 -51 17 -120 58 -149 l32
-23 1120 -3 c1104 -2 1120 -2 1153 18 94 58 94 198 -1 256 -31 18 -68 19
-1132 20 -605 1 -1110 -1 -1123 -3z"/>
<path d="M759 3647 c-45 -30 -74 -100 -64 -153 10 -54 70 -111 127 -119 24 -3
529 -5 1123 -3 1043 3 1081 4 1112 22 95 58 95 198 1 256 -32 20 -53 20 -1149
20 l-1116 0 -34 -23z"/>
<path d="M785 3026 c-41 -18 -83 -69 -91 -111 -12 -65 32 -139 99 -164 19 -8
372 -11 1118 -11 1072 0 1090 0 1129 20 45 23 80 80 80 130 0 50 -35 107 -80
130 -39 20 -56 20 -1132 20 -886 -1 -1099 -3 -1123 -14z"/>
<path d="M948 2376 c-106 -38 -191 -118 -230 -215 -23 -56 -23 -59 -26 -624
-2 -491 -1 -577 13 -630 28 -111 103 -200 211 -249 48 -22 58 -23 359 -23
l310 0 66 32 c79 39 140 102 177 181 l27 57 0 605 0 605 -27 57 c-35 76 -107
151 -177 185 l-56 28 -305 2 c-234 2 -314 0 -342 -11z m596 -308 c13 -18 16
-57 16 -215 l0 -193 -285 0 -285 0 0 195 c0 182 1 196 20 215 19 19 33 20 269
20 247 0 250 0 265 -22z m16 -903 c0 -182 -1 -196 -20 -215 -19 -19 -33 -20
-265 -20 -238 0 -245 1 -265 22 -19 20 -20 34 -20 215 l0 193 285 0 285 0 0
-195z"/>
<path d="M4570 4309 c-29 -12 -67 -46 -82 -72 -9 -18 -101 -281 -275 -792
l-75 -220 1 -1504 c1 -1123 4 -1513 13 -1543 15 -50 78 -122 132 -151 40 -21
51 -22 336 -22 285 0 296 1 336 22 67 36 101 70 131 131 l28 57 0 1515 0 1515
-182 499 c-194 531 -201 546 -272 566 -43 12 -58 12 -91 -1z m174 -936 l7 -23
-125 0 c-69 0 -126 2 -126 4 0 4 105 313 116 340 5 14 23 -25 64 -140 31 -88
60 -169 64 -181z m76 -1378 l0 -1055 -190 0 -190 0 0 1055 0 1055 190 0 190 0
0 -1055z m0 -1525 l0 -170 -190 0 -190 0 0 170 0 170 190 0 190 0 0 -170z"/>
</g>
</svg>
